<?xml version="1.0" encoding="UTF-8" standalone="no"?>
<!DOCTYPE svg PUBLIC "-//W3C//DTD SVG 1.1//EN" "http://www.w3.org/Graphics/SVG/1.1/DTD/svg11.dtd">

<!-- Created with Vectornator (http://vectornator.io/) -->
<svg height="100%" stroke-miterlimit="10" style="fill-rule:nonzero;clip-rule:evenodd;stroke-linecap:round;stroke-linejoin:round;" version="1.1" viewBox="0 0 303.044 72.375" width="100%" xml:space="preserve" xmlns="http://www.w3.org/2000/svg" xmlns:vectornator="http://vectornator.io" xmlns:xlink="http://www.w3.org/1999/xlink">
<metadata>
<vectornator:setting key="IsTimeLapseWatermarkDisabled" value="false"/>
<vectornator:setting key="UndoHistoryDisabled" value="true"/>
<vectornator:setting key="VNDimensionsVisible" value="true"/>
<vectornator:setting key="VNSnapToGuides" value="true"/>
<vectornator:setting key="WDCMYKEnabledKey" value="false"/>
<vectornator:setting key="WDDisplayWhiteBackground" value="false"/>
<vectornator:setting key="WDDynamicGuides" value="false"/>
<vectornator:setting key="WDGuidesVisible" value="true"/>
<vectornator:setting key="WDIsolateActiveLayer" value="false"/>
<vectornator:setting key="WDOutlineMode" value="false"/>
<vectornator:setting key="WDRulersVisible" value="true"/>
<vectornator:setting key="WDSnapToEdges" value="false"/>
<vectornator:setting key="WDSnapToGrid" value="false"/>
<vectornator:setting key="WDSnapToPoints" value="false"/>
<vectornator:setting key="WDUnits" value="Points"/>
</metadata>
<defs/>
<clipPath id="ArtboardFrame">
<rect height="72.375" width="303.044" x="0" y="0"/>
</clipPath>
<g clip-path="url(#ArtboardFrame)" id="Untitled" vectornator:layerName="Untitled">
<path d="M94.282 49.116C91.523 44.086 86.817 42.084 81.354 42.084C73.403 42.084 67.074 47.709 67.074 57.23C67.074 66.912 73.024 72.375 81.624 72.375C87.141 72.375 91.847 69.346 94.443 64.748L88.385 61.665C87.032 64.911 84.977 65.885 82.381 65.885C77.891 65.885 75.836 62.153 75.836 57.231C75.836 52.308 77.567 48.576 82.381 48.576C83.679 48.576 86.276 49.279 87.79 52.525L94.282 49.116Z" fill="#0a0000" fill-rule="evenodd" opacity="1" stroke="none"/>
<path d="M109.746 48.575C114.56 48.575 116.616 52.307 116.616 56.905C116.616 62.152 114.56 65.884 109.746 65.884C104.932 65.884 102.877 62.152 102.877 57.23C102.877 52.308 104.932 48.575 109.746 48.575ZM109.746 42.084C100.767 42.084 94.439 47.547 94.439 57.23C94.439 66.912 100.767 72.375 109.746 72.375C118.725 72.375 125.054 66.912 125.054 57.23C125.054 47.548 118.725 42.084 109.746 42.084Z" fill="#0a0000" fill-rule="evenodd" opacity="1" stroke="none"/>
<path d="M126.783 71.617L135.221 71.617L135.221 53.714C135.221 51.118 136.303 48.9 139.71 48.9C142.956 48.9 143.821 50.793 143.821 53.606L143.821 71.618L152.259 71.618L152.259 53.93C152.259 51.009 153.719 48.9 156.532 48.9C159.723 48.9 160.859 50.739 160.859 54.796L160.859 71.617L169.297 71.617L169.297 49.657C169.297 43.058 163.239 42.084 160.426 42.084C157.072 42.084 153.935 43.112 151.177 45.924C149.283 43.382 146.85 42.084 143.55 42.084C140.954 42.084 137.384 42.841 135.22 45.384L135.22 42.842L126.782 42.842L126.782 71.617L126.783 71.617Z" fill="#0a0000" fill-rule="evenodd" opacity="1" stroke="none"/>
<path d="M171.997 71.617L180.435 71.617L180.435 53.714C180.435 51.118 181.517 48.9 184.924 48.9C188.17 48.9 189.035 50.793 189.035 53.606L189.035 71.618L197.473 71.618L197.473 53.93C197.473 51.009 198.933 48.9 201.745 48.9C204.936 48.9 206.073 50.739 206.073 54.796L206.073 71.617L214.511 71.617L214.511 49.657C214.511 43.058 208.452 42.084 205.64 42.084C202.286 42.084 199.15 43.112 196.391 45.924C194.498 43.382 192.064 42.084 188.764 42.084C186.168 42.084 182.598 42.841 180.434 45.384L180.434 42.842L171.996 42.842L171.996 71.617L171.997 71.617Z" fill="#0a0000" fill-rule="evenodd" opacity="1" stroke="none"/>
<path d="M231.544 48.575C236.357 48.575 238.413 52.307 238.413 56.905C238.413 62.152 236.357 65.884 231.544 65.884C226.73 65.884 224.674 62.152 224.674 57.23C224.674 52.308 226.73 48.575 231.544 48.575ZM231.544 42.084C222.565 42.084 216.236 47.547 216.236 57.23C216.236 66.912 222.564 72.375 231.544 72.375C240.523 72.375 246.852 66.912 246.852 57.23C246.852 47.548 240.523 42.084 231.544 42.084Z" fill="#0a0000" fill-rule="evenodd" opacity="1" stroke="none"/>
<path d="M249.122 71.617L257.56 71.617L257.56 53.714C257.56 51.118 258.642 48.9 262.05 48.9C265.295 48.9 266.16 50.793 266.16 53.606L266.16 71.618L274.598 71.618L274.598 50.36C274.598 46.033 272.704 42.084 265.889 42.084C263.293 42.084 259.723 42.841 257.559 45.384L257.559 42.842L249.121 42.842L249.121 71.617L249.122 71.617Z" fill="#0a0000" fill-rule="evenodd" opacity="1" stroke="none"/>
<path d="M302.774 46.25C298.879 43.654 294.499 42.085 290.063 42.085C284.22 42.085 277.892 44.898 277.892 52.146C277.892 62.369 294.93 58.799 294.93 63.289C294.93 65.886 291.74 66.21 290.332 66.21C286.492 66.21 283.842 64.642 281.245 62.153L275.998 66.696C280.218 70.591 283.787 72.376 290.062 72.376C296.335 72.376 303.043 69.671 303.043 62.099C303.043 51.335 286.005 55.392 286.005 50.47C286.005 49.01 287.519 48.253 289.628 48.253C292.279 48.253 295.903 49.335 297.579 51.336L302.774 46.25Z" fill="#0a0000" fill-rule="evenodd" opacity="1" stroke="none"/>
<path d="M94.282 16.011C91.523 10.981 86.817 8.979 81.354 8.979C73.403 8.979 67.074 14.604 67.074 24.124C67.074 33.806 73.024 39.27 81.624 39.27C87.141 39.27 91.847 36.241 94.443 31.643L88.385 28.56C87.032 31.806 84.977 32.779 82.381 32.779C77.891 32.779 75.836 29.047 75.836 24.124C75.836 19.202 77.567 15.47 82.381 15.47C83.679 15.47 86.276 16.173 87.79 19.419L94.282 16.011Z" fill="#0a0000" fill-rule="evenodd" opacity="1" stroke="none"/>
<path d="M96.34 38.512L104.778 38.512L104.778 21.852C104.778 18.661 106.779 17.795 111.81 17.2L112.729 17.092L112.675 9.628C109.7 9.845 106.617 10.926 104.778 12.657L104.778 9.736L96.34 9.736L96.34 38.512Z" fill="#0a0000" fill-rule="evenodd" opacity="1" stroke="none"/>
<path d="M141.386 25.855C141.332 16.984 137.762 8.979 127.268 8.979C118.505 8.979 113.15 14.821 113.15 24.99C113.15 33.103 118.343 39.27 127.268 39.27C133.705 39.27 138.302 36.728 141.223 31.319L134.894 28.019C132.46 31.481 130.999 33.103 127.862 33.103C125.158 33.103 121.642 31.372 121.588 25.855C121.588 25.855 141.386 25.855 141.386 25.855ZM121.481 20.663C121.859 16.876 124.78 15.146 127.214 15.146C129.648 15.146 132.677 16.444 132.947 20.663L121.481 20.663Z" fill="#0a0000" fill-rule="evenodd" opacity="1" stroke="none"/>
<path d="M160.742 26.504C160.742 30.885 158.254 33.103 154.954 33.103C152.898 33.103 151.005 32.129 151.005 29.858C151.005 27.532 152.952 26.721 155.062 26.126L160.742 24.503L160.742 26.504ZM168.855 17.309C168.801 10.818 163.879 8.979 156.036 8.979C152.141 8.979 144.461 9.736 144.19 18.012L152.304 18.012C152.737 15.145 154.034 14.172 156.739 14.172C159.011 14.172 160.742 15.091 160.742 17.255L160.742 19.635L157.659 20.068C148.464 21.366 142.892 23.8 142.892 30.724C142.892 36.241 147.003 39.27 152.52 39.27C155.549 39.27 159.768 37.81 161.174 35.538L161.282 35.538C161.336 36.512 161.499 37.539 161.823 38.513L169.612 38.513C168.909 36.728 168.855 34.511 168.855 32.509C168.855 32.509 168.855 17.309 168.855 17.309Z" fill="#0a0000" fill-rule="evenodd" opacity="1" stroke="none"/>
<path d="M188.699 10.277L183.668 10.277L183.668 1.947L175.23 1.947L175.23 10.277L171.12 10.277L171.12 15.469L175.23 15.469L175.23 30.615C175.23 34.78 176.258 39.269 183.453 39.269C185.292 39.269 187.78 39.053 188.862 38.944L188.862 32.291C188.428 32.345 187.239 32.453 186.32 32.453C184.804 32.453 183.669 31.858 183.669 29.586L183.669 15.47L188.7 15.47L188.7 10.277L188.699 10.277Z" fill="#0a0000" fill-rule="evenodd" opacity="1" stroke="none"/>
<path d="M191.876 9.736L191.876 38.512L200.314 38.512L200.314 9.736L191.876 9.736ZM200.315 6.491L200.315 0L191.877 0L191.877 6.491L200.315 6.491Z" fill="#0a0000" fill-rule="evenodd" opacity="1" stroke="none"/>
<path d="M211.67 38.512L220.162 38.512L230.007 9.736L221.028 9.736L216.051 30.074L215.944 30.074L210.966 9.736L201.934 9.736L211.67 38.512Z" fill="#0a0000" fill-rule="evenodd" opacity="1" stroke="none"/>
<path d="M257.256 25.855C257.202 16.984 253.632 8.979 243.139 8.979C234.375 8.979 229.022 14.821 229.022 24.99C229.022 33.103 234.213 39.27 243.139 39.27C249.576 39.27 254.173 36.728 257.094 31.319L250.765 28.019C248.331 31.481 246.87 33.103 243.734 33.103C241.03 33.103 237.513 31.372 237.46 25.855C237.46 25.855 257.256 25.855 257.256 25.855ZM237.351 20.663C237.73 16.876 240.65 15.146 243.084 15.146C245.518 15.146 248.548 16.444 248.818 20.663L237.351 20.663Z" fill="#0a0000" fill-rule="evenodd" opacity="1" stroke="none"/>
<g opacity="1">
<path d="M31.602 8.495C22.92 8.495 15.28 11.708 9.376 17.698C3.299 23.863 0 31.85 0 40.185C0 48.606 3.212 56.42 9.29 62.498C15.367 68.575 23.268 71.874 31.602 71.874C39.936 71.874 48.011 68.575 54.262 62.411C60.166 56.594 63.291 48.867 63.291 40.185C63.291 31.59 60.166 23.776 54.175 17.785C48.098 11.708 40.284 8.495 31.602 8.495ZM31.689 14.226C38.808 14.226 45.146 16.917 50.095 21.866C54.956 26.728 57.561 33.153 57.561 40.185C57.561 47.304 55.043 53.555 50.181 58.331C45.058 63.366 38.46 66.058 31.688 66.058C24.829 66.058 18.404 63.367 13.456 58.418C8.507 53.468 5.729 46.957 5.729 40.185C5.729 33.326 8.507 26.815 13.456 21.779C18.318 16.831 24.57 14.226 31.689 14.226Z" fill="#0a0000" fill-rule="evenodd" opacity="1" stroke="none"/>
<path d="M31.28 34.919C29.49 31.655 26.436 30.356 22.891 30.356C17.731 30.356 13.624 34.006 13.624 40.185C13.624 46.468 17.485 50.014 23.067 50.014C26.648 50.014 29.701 48.048 31.386 45.065L27.454 43.064C26.576 45.17 25.243 45.802 23.558 45.802C20.644 45.802 19.311 43.38 19.311 40.186C19.311 36.992 20.434 34.569 23.558 34.569C24.4 34.569 26.085 35.026 27.068 37.131L31.28 34.919Z" fill="#0a0000" fill-rule="evenodd" opacity="1" stroke="none"/>
<path d="M49.562 34.919C47.771 31.655 44.718 30.356 41.173 30.356C36.013 30.356 31.905 34.006 31.905 40.185C31.905 46.468 35.767 50.014 41.348 50.014C44.929 50.014 47.982 48.048 49.667 45.065L45.735 43.064C44.858 45.17 43.524 45.802 41.839 45.802C38.926 45.802 37.591 43.38 37.591 40.186C37.591 36.992 38.715 34.569 41.839 34.569C42.681 34.569 44.366 35.026 45.35 37.131L49.562 34.919Z" fill="#0a0000" fill-rule="evenodd" opacity="1" stroke="none"/>
</g>
</g>
</svg>
